<?xml version="1.0" encoding="UTF-8"?><svg xmlns="http://www.w3.org/2000/svg" xmlns:xlink="http://www.w3.org/1999/xlink" viewBox="0 0 618 630"><defs><style>.e{fill:#fbd6c3;}.f{fill:#bc8e77;}.g{fill:#955524;}.h{fill:#462919;}.i{fill:#8a6b5b;}</style><symbol id="a" viewBox="0 0 132 132"><g><rect class="f" width="132" height="132" rx="11.42" ry="11.42"/><rect class="g" x="12" y="12" width="108" height="108" rx="8.76" ry="8.76"/><rect class="i" x="36" y="36" width="60" height="60" rx="12.75" ry="12.75"/><rect class="h" x="48" y="48" width="36" height="36" rx="18" ry="18"/></g></symbol></defs><g id="b"/><g id="c"><g id="d"><rect class="i" width="618" height="630" rx="30.76" ry="30.76"/><use width="132" height="132" transform="translate(30.58 30)" xlink:href="#a"/><use width="132" height="132" transform="translate(174.58 30)" xlink:href="#a"/><use width="132" height="132" transform="translate(318.58 30)" xlink:href="#a"/><use width="132" height="132" transform="translate(30.58 174)" xlink:href="#a"/><use width="132" height="132" transform="translate(174.58 174)" xlink:href="#a"/><use width="132" height="132" transform="translate(318.58 174)" xlink:href="#a"/><use width="132" height="132" transform="translate(30.58 318)" xlink:href="#a"/><use width="132" height="132" transform="translate(174.58 318)" xlink:href="#a"/><use width="132" height="132" transform="translate(318.58 318)" xlink:href="#a"/><use width="132" height="132" transform="translate(462 30)" xlink:href="#a"/><use width="132" height="132" transform="translate(462 174)" xlink:href="#a"/><use width="132" height="132" transform="translate(462 318)" xlink:href="#a"/><use width="132" height="132" transform="translate(30 462)" xlink:href="#a"/><use width="132" height="132" transform="translate(174 462)" xlink:href="#a"/><rect class="e" x="462" y="462" width="132" height="132" rx="12.13" ry="12.13"/><rect class="e" x="318" y="462" width="132" height="132" rx="12.13" ry="12.13"/></g></g></svg>