<?xml version="1.0" encoding="UTF-8"?><svg xmlns="http://www.w3.org/2000/svg" xmlns:xlink="http://www.w3.org/1999/xlink" viewBox="0 0 552 473.52"><defs><style>.g{fill:none;}.h,.i{fill:#fff;}.j{fill:#ffd383;}.k{fill:#ffd38e;}.l,.m{fill:#fae2d3;}.n{fill:#fdd283;}.o,.p{fill:#bc8e77;}.q{fill:#d1dfe1;}.r,.s{fill:#955524;}.t{fill:#462919;}.u{fill:#8a6b5b;}.p,.s,.m{font-family:CinderelaPersonalUse-Regular, Cinderela Personal Use;font-size:93.16px;}.i{stroke:#fff;stroke-miterlimit:10;stroke-width:0px;}</style><symbol id="a" viewBox="0 0 132 132"><g><rect class="o" width="132" height="132" rx="11.42" ry="11.42"/><rect class="r" x="12" y="12" width="108" height="108" rx="8.76" ry="8.76"/><rect class="u" x="36" y="36" width="60" height="60" rx="12.75" ry="12.75"/><rect class="t" x="48" y="48" width="36" height="36" rx="18" ry="18"/></g></symbol><symbol id="b" viewBox="0 0 431.56 285.68"><g><g><g><text class="s" transform="translate(45.79 237.11) rotate(-19.58) scale(1.01 1)"><tspan x="0" y="0">Locavore</tspan></text><text class="s" transform="translate(44.79 236.11) rotate(-19.58) scale(1.01 1)"><tspan x="0" y="0">Locavore</tspan></text><text class="s" transform="translate(43.79 235.11) rotate(-19.58) scale(1.01 1)"><tspan x="0" y="0">Locavore</tspan></text><text class="s" transform="translate(42.79 234.11) rotate(-19.58) scale(1.01 1)"><tspan x="0" y="0">Locavore</tspan></text><text class="s" transform="translate(41.79 233.11) rotate(-19.58) scale(1.01 1)"><tspan x="0" y="0">Locavore</tspan></text><text class="s" transform="translate(40.79 232.11) rotate(-19.58) scale(1.01 1)"><tspan x="0" y="0">Locavore</tspan></text><text class="s" transform="translate(39.79 231.11) rotate(-19.58) scale(1.01 1)"><tspan x="0" y="0">Locavore</tspan></text><text class="s" transform="translate(38.79 230.11) rotate(-19.58) scale(1.01 1)"><tspan x="0" y="0">Locavore</tspan></text></g><g><text class="s" transform="translate(44.79 236.11) rotate(-19.58) scale(1.01 1)"><tspan x="0" y="0">Locavore</tspan></text><text class="s" transform="translate(43.79 235.11) rotate(-19.58) scale(1.01 1)"><tspan x="0" y="0">Locavore</tspan></text><text class="s" transform="translate(42.79 234.11) rotate(-19.58) scale(1.01 1)"><tspan x="0" y="0">Locavore</tspan></text><text class="s" transform="translate(41.79 233.11) rotate(-19.58) scale(1.01 1)"><tspan x="0" y="0">Locavore</tspan></text><text class="s" transform="translate(40.79 232.11) rotate(-19.58) scale(1.01 1)"><tspan x="0" y="0">Locavore</tspan></text><text class="s" transform="translate(39.79 231.11) rotate(-19.58) scale(1.01 1)"><tspan x="0" y="0">Locavore</tspan></text><text class="s" transform="translate(38.79 230.11) rotate(-19.58) scale(1.01 1)"><tspan x="0" y="0">Locavore</tspan></text><text class="s" transform="translate(37.79 229.11) rotate(-19.58) scale(1.01 1)"><tspan x="0" y="0">Locavore</tspan></text></g><g><text class="s" transform="translate(43.79 235.11) rotate(-19.58) scale(1.01 1)"><tspan x="0" y="0">Locavore</tspan></text><text class="s" transform="translate(42.79 234.11) rotate(-19.58) scale(1.01 1)"><tspan x="0" y="0">Locavore</tspan></text><text class="s" transform="translate(41.79 233.11) rotate(-19.58) scale(1.01 1)"><tspan x="0" y="0">Locavore</tspan></text><text class="s" transform="translate(40.79 232.11) rotate(-19.58) scale(1.01 1)"><tspan x="0" y="0">Locavore</tspan></text><text class="s" transform="translate(39.79 231.11) rotate(-19.58) scale(1.01 1)"><tspan x="0" y="0">Locavore</tspan></text><text class="s" transform="translate(38.79 230.11) rotate(-19.58) scale(1.01 1)"><tspan x="0" y="0">Locavore</tspan></text><text class="s" transform="translate(37.79 229.11) rotate(-19.58) scale(1.01 1)"><tspan x="0" y="0">Locavore</tspan></text><text class="s" transform="translate(36.79 228.11) rotate(-19.58) scale(1.01 1)"><tspan x="0" y="0">Locavore</tspan></text></g><g><text class="s" transform="translate(42.79 234.11) rotate(-19.58) scale(1.01 1)"><tspan x="0" y="0">Locavore</tspan></text><text class="s" transform="translate(41.79 233.11) rotate(-19.58) scale(1.01 1)"><tspan x="0" y="0">Locavore</tspan></text><text class="s" transform="translate(40.79 232.11) rotate(-19.58) scale(1.01 1)"><tspan x="0" y="0">Locavore</tspan></text><text class="s" transform="translate(39.79 231.11) rotate(-19.58) scale(1.01 1)"><tspan x="0" y="0">Locavore</tspan></text><text class="s" transform="translate(38.79 230.11) rotate(-19.58) scale(1.01 1)"><tspan x="0" y="0">Locavore</tspan></text><text class="s" transform="translate(37.79 229.11) rotate(-19.58) scale(1.01 1)"><tspan x="0" y="0">Locavore</tspan></text><text class="s" transform="translate(36.79 228.11) rotate(-19.58) scale(1.01 1)"><tspan x="0" y="0">Locavore</tspan></text><text class="s" transform="translate(35.79 227.11) rotate(-19.58) scale(1.01 1)"><tspan x="0" y="0">Locavore</tspan></text></g><g><text class="s" transform="translate(41.79 233.11) rotate(-19.58) scale(1.01 1)"><tspan x="0" y="0">Locavore</tspan></text><text class="s" transform="translate(40.79 232.11) rotate(-19.58) scale(1.01 1)"><tspan x="0" y="0">Locavore</tspan></text><text class="s" transform="translate(39.79 231.11) rotate(-19.58) scale(1.01 1)"><tspan x="0" y="0">Locavore</tspan></text><text class="s" transform="translate(38.79 230.11) rotate(-19.58) scale(1.01 1)"><tspan x="0" y="0">Locavore</tspan></text><text class="s" transform="translate(37.79 229.11) rotate(-19.58) scale(1.01 1)"><tspan x="0" y="0">Locavore</tspan></text><text class="s" transform="translate(36.79 228.11) rotate(-19.58) scale(1.01 1)"><tspan x="0" y="0">Locavore</tspan></text><text class="s" transform="translate(35.79 227.11) rotate(-19.58) scale(1.01 1)"><tspan x="0" y="0">Locavore</tspan></text><text class="s" transform="translate(34.79 226.11) rotate(-19.58) scale(1.01 1)"><tspan x="0" y="0">Locavore</tspan></text></g><g><text class="s" transform="translate(40.79 232.11) rotate(-19.58) scale(1.01 1)"><tspan x="0" y="0">Locavore</tspan></text><text class="s" transform="translate(39.79 231.11) rotate(-19.58) scale(1.01 1)"><tspan x="0" y="0">Locavore</tspan></text><text class="s" transform="translate(38.79 230.11) rotate(-19.58) scale(1.01 1)"><tspan x="0" y="0">Locavore</tspan></text><text class="s" transform="translate(37.79 229.11) rotate(-19.58) scale(1.01 1)"><tspan x="0" y="0">Locavore</tspan></text><text class="s" transform="translate(36.79 228.11) rotate(-19.58) scale(1.01 1)"><tspan x="0" y="0">Locavore</tspan></text><text class="s" transform="translate(35.79 227.11) rotate(-19.58) scale(1.01 1)"><tspan x="0" y="0">Locavore</tspan></text><text class="s" transform="translate(34.79 226.11) rotate(-19.58) scale(1.01 1)"><tspan x="0" y="0">Locavore</tspan></text><text class="s" transform="translate(33.79 225.11) rotate(-19.58) scale(1.01 1)"><tspan x="0" y="0">Locavore</tspan></text></g></g><g><text class="p" transform="translate(38.79 230.11) rotate(-19.58) scale(1.01 1)"><tspan x="0" y="0">Locavore</tspan></text><text class="p" transform="translate(37.79 229.11) rotate(-19.58) scale(1.01 1)"><tspan x="0" y="0">Locavore</tspan></text><text class="p" transform="translate(36.79 228.11) rotate(-19.58) scale(1.01 1)"><tspan x="0" y="0">Locavore</tspan></text><text class="p" transform="translate(35.79 227.11) rotate(-19.58) scale(1.01 1)"><tspan x="0" y="0">Locavore</tspan></text><text class="p" transform="translate(34.79 226.11) rotate(-19.58) scale(1.01 1)"><tspan x="0" y="0">Locavore</tspan></text><text class="p" transform="translate(33.79 225.11) rotate(-19.58) scale(1.01 1)"><tspan x="0" y="0">Locavore</tspan></text></g><text class="m" transform="translate(33.79 225.11) rotate(-19.58) scale(1.01 1)"><tspan x="0" y="0">Locavore</tspan></text></g></symbol><symbol id="c" viewBox="0 0 143.26 214"><g><g><path class="l" d="M67.02,209.69l-49.83-52.32c-5.28-5.55-5.07-14.33,.48-19.61l52.32-49.83c5.55-5.28,14.33-5.07,19.61,.48l49.83,52.32c5.28,5.55,5.07,14.33-.48,19.61l-52.32,49.83c-5.55,5.28-14.33,5.07-19.61-.48Z"/><g><path class="u" d="M67.21,207.75l-48.07-50.47c-5.21-5.47-5-14.13,.47-19.33l50.47-48.07c5.47-5.21,14.13-5,19.33,.47l48.07,50.47c5.21,5.47,5,14.13-.47,19.33l-50.47,48.07c-5.47,5.21-14.13,5-19.33-.47Z"/><use width="132" height="132" transform="translate(79.81 92.82) rotate(46.4) scale(.29)" xlink:href="#a"/><use width="132" height="132" transform="translate(108.49 122.93) rotate(46.4) scale(.29)" xlink:href="#a"/><use width="132" height="132" transform="translate(49.69 121.5) rotate(46.4) scale(.29)" xlink:href="#a"/><use width="132" height="132" transform="translate(78.37 151.62) rotate(46.4) scale(.29)" xlink:href="#a"/></g></g><g><line class="g" x2="12" y2="12"/><g><rect class="n" x="66.28" y="135" width="24" height="24" rx="3.9" ry="3.9"/><rect class="n" x="65.28" y="134" width="24" height="24" rx="3.9" ry="3.9"/><rect class="n" x="64.28" y="133" width="24" height="24" rx="3.9" ry="3.9"/><rect class="n" x="63.28" y="132" width="24" height="24" rx="3.9" ry="3.9"/></g><rect class="h" x="63.28" y="132" width="24" height="24" rx="3.9" ry="3.9"/></g><rect class="h" x="69.14" y="154" width="3" height="12" rx="1.5" ry="1.5"/><rect class="h" x="77.14" y="154" width="3" height="17" rx="1.5" ry="1.5"/><path class="h" d="M71.63,162.06c-.02,.14-.02,.27,0,.41,.02,.11,.06,.22,.1,.33,.07,.22,.11,.45,.15,.68,.02,.13,.19,.21,.31,.17,.14-.04,.2-.17,.17-.31-.04-.21-.08-.43-.14-.64-.03-.1-.06-.2-.09-.3,0-.03-.01-.05-.02-.08,0-.01-.01-.08,0-.03,0-.02,0-.05,0-.07,0-.01,.01-.1,0-.05,.02-.13-.03-.28-.17-.31-.12-.03-.28,.04-.31,.17h0Z"/><path class="h" d="M69.43,163.16c0-.05,0-.11,.02-.16v-.05s0,.03,0,0c0-.03,0-.05,.01-.08,.02-.1,.04-.2,.06-.3,.05-.21,.12-.41,.2-.6,.05-.12-.05-.28-.17-.31-.15-.03-.25,.05-.31,.17-.18,.42-.28,.86-.31,1.31-.01,.13,.12,.26,.25,.25,.14,0,.24-.11,.25-.25h0Z"/><path class="h" d="M68.05,155.85c.74,.48,1.63,1.2,1.66,2.16,.01,.32,.51,.32,.5,0-.05-1.15-1.01-2.01-1.91-2.59-.27-.18-.52,.26-.25,.43h0Z"/><path class="h" d="M69.05,156.09c.32,0,.32-.5,0-.5s-.32,.5,0,.5h0Z"/><path class="h" d="M72.86,155.44c-.95,.42-1.69,1.24-2.04,2.21-.05,.13,.05,.27,.17,.31,.14,.04,.26-.05,.31-.17,.31-.85,.98-1.54,1.81-1.91,.12-.05,.15-.24,.09-.34-.07-.13-.22-.14-.34-.09h0Z"/><path class="h" d="M72.7,155.51c-.59,.55-1.05,1.22-1.36,1.96-.05,.12,.06,.28,.17,.31,.14,.04,.25-.05,.31-.17,.28-.66,.71-1.25,1.23-1.74,.1-.09,.09-.26,0-.35-.1-.1-.25-.09-.35,0h0Z"/><path class="h" d="M75.53,155.79c1.11,.58,1.98,1.52,2.48,2.67,.05,.12,.24,.15,.34,.09,.13-.07,.14-.22,.09-.34-.53-1.22-1.48-2.23-2.66-2.85-.28-.15-.54,.28-.25,.43h0Z"/><path class="h" d="M76.68,156.17c.17,.13,.32,.28,.46,.44,.04,.05,.12,.07,.18,.07s.13-.03,.18-.07,.08-.11,.07-.18-.03-.13-.07-.18c-.14-.16-.29-.31-.46-.44-.02-.02-.05-.04-.08-.05-.03-.02-.06-.02-.1-.02-.06,0-.13,.03-.18,.07s-.08,.11-.07,.18c0,.06,.02,.14,.07,.18h0Z"/><path class="h" d="M81.27,155.58c-.29,.06-.52,.27-.73,.47s-.41,.4-.59,.63c-.37,.46-.66,.96-.87,1.51-.05,.13,.05,.27,.17,.31,.14,.04,.26-.05,.31-.17,.18-.46,.43-.9,.74-1.29,.16-.2,.33-.39,.51-.56,.17-.16,.36-.36,.59-.41,.31-.07,.18-.55-.13-.48h0Z"/><path class="h" d="M80.26,155.67c-.27,.22-.52,.46-.76,.71-.09,.09-.1,.26,0,.35s.26,.1,.35,0c.24-.25,.5-.49,.76-.71,.05-.04,.07-.12,.07-.18,0-.06-.03-.13-.07-.18s-.11-.08-.18-.07-.12,.03-.18,.07h0Z"/><path class="h" d="M76.61,156.46c.31,.65,.56,1.32,.75,2.01,.09,.31,.57,.18,.48-.13-.2-.73-.47-1.45-.8-2.13-.06-.12-.23-.15-.34-.09-.12,.07-.15,.22-.09,.34h0Z"/><path class="h" d="M77.22,168.03c-.14,.61-.23,1.22-.28,1.84-.01,.13,.12,.25,.25,.25,.14,0,.24-.11,.25-.25,.04-.58,.13-1.15,.26-1.71,.03-.13-.04-.27-.17-.31-.13-.03-.28,.04-.31,.17h0Z"/><rect class="j" x="80.14" y="156.5" width="2" height="13" rx="1" ry="1"/><path class="h" d="M80.51,169.5c0-.44-.07-.88-.15-1.32-.04-.21-.09-.42-.13-.62s-.11-.38-.25-.53c-.22-.24-.57,.11-.35,.35,.09,.1,.11,.26,.14,.39,.04,.2,.09,.39,.12,.59,.07,.38,.13,.76,.13,1.14,0,.32,.5,.32,.5,0h0Z"/><rect class="j" x="72.14" y="156.5" width="2" height="7" rx="1" ry="1"/><path class="j" d="M74.6,165c0,.64-.33,1.28-.86,1.64-.69,.46-1.67,.43-2.32-.08-1.47-1.15-.58-3.6,1.28-3.53,.83,.03,1.6,.63,1.83,1.43,.05,.18,.07,.36,.07,.54Z"/><path class="h" d="M72.6,164c0,.64-.33,1.28-.86,1.64-.69,.46-1.67,.43-2.32-.08-1.47-1.15-.58-3.6,1.28-3.53,.83,.03,1.6,.63,1.83,1.43,.05,.18,.07,.36,.07,.54Z"/><path class="j" d="M82.6,170.5c0,.64-.33,1.28-.86,1.64-.69,.46-1.67,.43-2.32-.08-1.47-1.15-.58-3.6,1.28-3.53,.83,.03,1.6,.63,1.83,1.43,.05,.18,.07,.36,.07,.54Z"/><circle class="i" cx="78.64" cy="169" r="2"/><path class="k" d="M81.61,168.96c.02,.09,.04,.17,.05,.26v-.07c0,.06,0,.13,.01,.2s.02,.13,.07,.18c.04,.04,.11,.08,.18,.07s.13-.02,.18-.07,.08-.11,.07-.18c-.01-.18-.04-.35-.08-.52-.01-.06-.06-.12-.11-.15s-.13-.04-.19-.03-.12,.06-.15,.11c-.03,.06-.04,.12-.03,.19h0Z"/><path class="k" d="M81.63,168.71c.02,.22,.06,.43,.1,.64,.04,.19,.07,.39,.17,.56,.07,.11,.23,.16,.34,.09s.16-.22,.09-.34c-.01-.02-.02-.04-.03-.06,0-.02,0-.01,0,.02v-.03s-.03-.07-.04-.11c-.02-.09-.04-.18-.05-.26s-.03-.18-.05-.27c0-.05-.01-.09-.02-.14,0-.06,0,.04,0-.02v-.08c-.02-.07-.03-.13-.08-.18-.04-.04-.11-.08-.18-.07-.12,0-.27,.11-.25,.25h0Z"/><path class="k" d="M82.72,158.68c-.56,.45-1.04,1.01-1.4,1.64-.07,.11-.03,.28,.09,.34s.27,.03,.34-.09c.35-.59,.78-1.1,1.32-1.54,.1-.08,.09-.27,0-.35-.11-.1-.24-.09-.35,0h0Z"/><path class="k" d="M82.26,159.24c.32,0,.32-.5,0-.5s-.32,.5,0,.5h0Z"/><path class="k" d="M74.74,158.7c-.3,.24-.57,.49-.83,.77-.13,.14-.25,.28-.37,.42-.13,.16-.25,.32-.31,.52-.04,.13,.04,.28,.17,.31s.27-.04,.31-.17c0,0,.02-.06,.01-.05,0,.01,.02-.04,.02-.04,.02-.04,.04-.07,.06-.1,.04-.06,.08-.1,.13-.17,.12-.14,.24-.28,.36-.41,.25-.26,.51-.5,.79-.73,.11-.08,.09-.27,0-.35-.1-.1-.25-.08-.35,0h0Z"/><path class="k" d="M74.25,159.24c.32,0,.32-.5,0-.5s-.32,.5,0,.5h0Z"/><path class="k" d="M73.23,163.17c.07,.13,.11,.24,.14,.4,.02,.12,.16,.19,.27,.18,.12-.02,.21-.12,.22-.25l.02-.7-.49,.07c.14,.38,.27,.77,.37,1.16,.03,.12,.15,.2,.27,.18,.13-.02,.21-.12,.22-.25,.03-.46-.05-.92-.13-1.37-.02-.13-.19-.21-.31-.17-.14,.05-.19,.17-.17,.31,.07,.52,.16,1.04,.25,1.55,.02,.13,.19,.21,.31,.17,.14-.04,.2-.17,.17-.31-.09-.52-.18-1.03-.25-1.55l-.48,.13c.07,.42,.14,.81,.11,1.24l.49-.07c-.11-.39-.23-.78-.37-1.16-.04-.12-.14-.2-.27-.18s-.21,.12-.22,.25l-.02,.7,.49-.07c-.03-.18-.1-.36-.19-.52-.06-.11-.23-.16-.34-.09s-.16,.22-.09,.34h0Z"/><path class="k" d="M70.81,166.23h.08s.07-.01,.09-.04,.04-.06,.04-.09-.01-.07-.04-.09-.05-.04-.09-.04h-.08s-.07,.01-.09,.04-.04,.06-.04,.09,.01,.07,.04,.09,.05,.04,.09,.04h0Z"/><path class="k" d="M70.79,166.26c.12,.03,.24,.07,.36,.12s.22,.09,.33,.13c.06,.03,.14,.02,.17-.04,.03-.05,.02-.14-.04-.17-.24-.11-.5-.2-.75-.27-.06-.02-.14,.02-.15,.09s.02,.13,.09,.15h0Z"/><path class="k" d="M70.85,166.24l.73,.29,.07-.24-.23-.04c-.05,0-.1-.02-.15,0s-.08,.09-.07,.14c0,.05,.04,.09,.08,.11,.03,.02,.07,.02,.1,.03h.02s-.01,0,0,0c.01,0,.03,.01,.04,.02,.01,0,.01,0,0,0l.02,.02s.03,.04,.02,.02l.17-.17c-.25-.12-.49-.28-.69-.44-.05-.04-.13-.05-.18,0-.04,.05-.05,.13,0,.18,.23,.19,.47,.35,.74,.48,.05,.02,.11,.02,.15-.02,.04-.04,.05-.11,.02-.15-.04-.06-.09-.11-.15-.14-.03-.02-.06-.03-.09-.04-.01,0-.03,0-.04,0-.01,0-.01,0,0,0,.01,.01,.01,.01,0,0l.03,.06v.02l-.02,.06h0l-.04,.04h-.04s-.01,0,0,.01c0,0,.02,0,.03,0h.07l.14,.04c.06,.01,.14-.02,.15-.09s-.02-.13-.09-.15l-.73-.29c-.06-.02-.14,.03-.15,.09-.02,.07,.02,.13,.09,.15h0Z"/><path class="k" d="M78.38,171.29c.3,.16,.58,.35,.84,.56,.05,.04,.13,.05,.18,0,.04-.04,.05-.13,0-.18-.28-.23-.57-.43-.89-.6-.06-.03-.14-.01-.17,.04s-.01,.14,.04,.17h0Z"/><path class="k" d="M78.79,171.03l-.46-.05s-.07,.02-.09,.04c-.02,.02-.04,.06-.04,.09,0,.07,.06,.12,.12,.12l.46,.05s.07-.02,.09-.04c.02-.02,.04-.06,.04-.09,0-.07-.06-.12-.12-.12h0Z"/><path class="k" d="M79.61,171.91c-.08,.02-.17-.07-.23-.12-.09-.08-.18-.16-.28-.24l-.56-.5c-.05-.04-.13-.05-.18,0-.05,.05-.05,.13,0,.18,.21,.19,.42,.37,.62,.56,.1,.09,.2,.18,.31,.26s.23,.13,.37,.1c.07-.01,.1-.09,.09-.15-.02-.07-.09-.1-.15-.09h0Z"/></g></symbol></defs><g id="d"/><g id="e"><g id="f"><rect class="q" y="41.52" width="552" height="432"/><line class="g" x1="363.28" y1="329.52" x2="303.28" y2="173.52"/><use width="143.26" height="214" transform="translate(177.46 7.03) scale(1.36)" xlink:href="#c"/><use width="431.56" height="285.68" transform="translate(69.99 153.58)" xlink:href="#b"/></g></g></svg>